<svg width="14" height="12" viewBox="0 0 14 12" fill="none" xmlns="http://www.w3.org/2000/svg">
<path d="M6.04568 1.93541H7.95435C8.83758 1.93621 9.60446 2.54396 9.80701 3.40366C9.82401 3.47533 9.88794 3.52599 9.9616 3.52616H12.8864C12.9286 3.52631 12.9691 3.50966 12.999 3.47989C13.0289 3.45012 13.0457 3.40967 13.0457 3.36749V1.77616C13.0457 1.43863 12.9116 1.11494 12.6728 0.876333C12.4341 0.637724 12.1104 0.503752 11.7728 0.503906H2.22718C1.88966 0.503752 1.5659 0.637724 1.32719 0.876333C1.08847 1.11494 0.954346 1.43863 0.954346 1.77616V3.36749C0.954345 3.40967 0.971142 3.45012 1.00102 3.47989C1.03091 3.50966 1.07141 3.52631 1.1136 3.52616H4.03843C4.11224 3.52642 4.1764 3.47557 4.19301 3.40366C4.39557 2.54396 5.16244 1.93621 6.04568 1.93541Z" fill="black"/>
<path d="M0.636417 4.48108C0.467581 4.48092 0.305616 4.54793 0.186231 4.66731C0.0668464 4.7867 -0.000154698 4.94866 2.68218e-07 5.1175V8.45825C-2.50467e-07 8.76071 0.212885 9.02139 0.50925 9.08183C0.583199 9.09704 0.636306 9.16208 0.636417 9.23758V10.5262C0.636417 10.8776 0.92135 11.1626 1.27283 11.1626C1.62432 11.1626 1.90925 10.8776 1.90925 10.5262V9.25391C1.9091 9.21173 1.92574 9.17122 1.95552 9.14134C1.98529 9.11146 2.02573 9.09466 2.06792 9.09466H11.9321C11.9743 9.09466 12.0147 9.11146 12.0445 9.14134C12.0743 9.17122 12.0909 9.21173 12.0908 9.25391V10.5262C12.0908 10.8776 12.3757 11.1626 12.7272 11.1626C13.0787 11.1626 13.3636 10.8776 13.3636 10.5262V9.23758C13.3637 9.16208 13.4168 9.09704 13.4908 9.08183C13.7871 9.02139 14 8.76071 14 8.45825V5.1175C14.0002 4.94866 13.9332 4.7867 13.8138 4.66731C13.6944 4.54793 13.5324 4.48092 13.3636 4.48108H0.636417Z" fill="black"/>
</svg>
