<svg width="112" height="53" viewBox="0 0 112 53" fill="none" xmlns="http://www.w3.org/2000/svg">
<path d="M5.63117 37.0312H10.9808V33.5977H12.5042V42H10.9808V38.5664H5.63117V42H4.10773V33.5977H5.63117V37.0312ZM37.2697 38.6016C37.2697 39.1133 37.1818 39.584 37.006 40.0137C36.8302 40.4434 36.5861 40.8145 36.2736 41.127C35.9611 41.4395 35.59 41.6836 35.1603 41.8594C34.7345 42.0312 34.2697 42.1172 33.7658 42.1172H31.7033C31.1994 42.1172 30.7326 42.0312 30.3029 41.8594C29.8732 41.6836 29.5021 41.4395 29.1896 41.127C28.8771 40.8145 28.631 40.4434 28.4513 40.0137C28.2755 39.584 28.1877 39.1133 28.1877 38.6016V36.9961C28.1877 36.4883 28.2755 36.0195 28.4513 35.5898C28.631 35.1562 28.8771 34.7852 29.1896 34.4766C29.5021 34.1641 29.8732 33.9199 30.3029 33.7441C30.7326 33.5684 31.1994 33.4805 31.7033 33.4805H33.7658C34.2697 33.4805 34.7345 33.5684 35.1603 33.7441C35.59 33.9199 35.9611 34.1641 36.2736 34.4766C36.5861 34.7852 36.8302 35.1562 37.006 35.5898C37.1818 36.0195 37.2697 36.4883 37.2697 36.9961V38.6016ZM35.7463 36.9961C35.7463 36.6953 35.6974 36.4238 35.5998 36.1816C35.506 35.9355 35.3713 35.7266 35.1955 35.5547C35.0236 35.3789 34.8146 35.2441 34.5685 35.1504C34.3263 35.0527 34.0588 35.0039 33.7658 35.0039H31.7033C31.4064 35.0039 31.1349 35.0527 30.8888 35.1504C30.6466 35.2441 30.4377 35.3789 30.2619 35.5547C30.0861 35.7266 29.9494 35.9355 29.8517 36.1816C29.758 36.4238 29.7111 36.6953 29.7111 36.9961V38.6016C29.7111 38.9023 29.758 39.1758 29.8517 39.4219C29.9494 39.6641 30.0861 39.873 30.2619 40.0488C30.4377 40.2207 30.6466 40.3555 30.8888 40.4531C31.1349 40.5469 31.4064 40.5938 31.7033 40.5938H33.7541C34.0509 40.5938 34.3205 40.5469 34.5627 40.4531C34.8088 40.3555 35.0197 40.2207 35.1955 40.0488C35.3713 39.873 35.506 39.6641 35.5998 39.4219C35.6974 39.1758 35.7463 38.9023 35.7463 38.6016V36.9961ZM61.168 41.2324C61.168 41.3418 61.1484 41.4434 61.1094 41.5371C61.0703 41.6309 61.0156 41.7129 60.9453 41.7832C60.875 41.8496 60.793 41.9023 60.6992 41.9414C60.6055 41.9805 60.5059 42 60.4004 42H56.9668C56.6426 42 56.3145 41.9648 55.9824 41.8945C55.6504 41.8242 55.3281 41.7168 55.0156 41.5723C54.707 41.4238 54.416 41.2363 54.1426 41.0098C53.8691 40.7832 53.6289 40.5156 53.4219 40.207C53.2188 39.8945 53.0586 39.5391 52.9414 39.1406C52.8242 38.7383 52.7656 38.291 52.7656 37.7988V33.5977H54.2891V37.7988C54.2891 38.2285 54.3477 38.5918 54.4648 38.8887C54.5859 39.1855 54.7383 39.4336 54.9219 39.6328C55.1055 39.832 55.3066 39.9883 55.5254 40.1016C55.7441 40.2148 55.9512 40.2988 56.1465 40.3535C56.3457 40.4082 56.5195 40.4434 56.668 40.459C56.8203 40.4707 56.9199 40.4766 56.9668 40.4766H59.6445V33.5977H61.168V41.2324ZM85.1776 39.5273C85.1776 39.8281 85.1385 40.0996 85.0604 40.3418C84.9862 40.5801 84.8866 40.791 84.7616 40.9746C84.6366 41.1582 84.4901 41.3145 84.3221 41.4434C84.1541 41.5723 83.9803 41.6777 83.8006 41.7598C83.6209 41.8418 83.4373 41.9023 83.2498 41.9414C83.0662 41.9805 82.8924 42 82.7284 42H76.8514V40.4766H82.7284C83.0213 40.4766 83.2479 40.3906 83.408 40.2188C83.5721 40.0469 83.6541 39.8164 83.6541 39.5273C83.6541 39.3867 83.6327 39.2578 83.5897 39.1406C83.5467 39.0234 83.4842 38.9219 83.4022 38.8359C83.3241 38.75 83.2264 38.6836 83.1092 38.6367C82.9959 38.5898 82.869 38.5664 82.7284 38.5664H79.2244C78.9784 38.5664 78.7127 38.5234 78.4276 38.4375C78.1424 38.3477 77.8768 38.2051 77.6307 38.0098C77.3885 37.8145 77.1854 37.5586 77.0213 37.2422C76.8612 36.9258 76.7811 36.5391 76.7811 36.082C76.7811 35.625 76.8612 35.2402 77.0213 34.9277C77.1854 34.6113 77.3885 34.3555 77.6307 34.1602C77.8768 33.9609 78.1424 33.8184 78.4276 33.7324C78.7127 33.6426 78.9784 33.5977 79.2244 33.5977H84.41V35.1211H79.2244C78.9354 35.1211 78.7088 35.209 78.5448 35.3848C78.3846 35.5605 78.3045 35.793 78.3045 36.082C78.3045 36.375 78.3846 36.6074 78.5448 36.7793C78.7088 36.9473 78.9354 37.0312 79.2244 37.0312H82.7284H82.7401C82.9041 37.0352 83.078 37.0586 83.2616 37.1016C83.4452 37.1406 83.6268 37.2031 83.8065 37.2891C83.9901 37.375 84.1639 37.4844 84.328 37.6172C84.492 37.7461 84.6366 37.9023 84.7616 38.0859C84.8905 38.2695 84.992 38.4805 85.0662 38.7188C85.1405 38.957 85.1776 39.2266 85.1776 39.5273ZM107.511 38.5664H102.701V37.0312H107.511V38.5664ZM108.197 42H102.701C102.49 42 102.259 41.9629 102.009 41.8887C101.759 41.8145 101.527 41.6934 101.312 41.5254C101.101 41.3535 100.924 41.1328 100.779 40.8633C100.638 40.5898 100.568 40.2559 100.568 39.8613V34.3652C100.568 34.2598 100.588 34.1602 100.627 34.0664C100.666 33.9727 100.718 33.8906 100.785 33.8203C100.855 33.75 100.937 33.6953 101.031 33.6562C101.125 33.6172 101.226 33.5977 101.336 33.5977H108.197V35.1211H102.091V39.8613C102.091 40.0605 102.144 40.2129 102.25 40.3184C102.355 40.4238 102.509 40.4766 102.713 40.4766H108.197V42Z" fill="#C7C7C7"/>
<path d="M25.2109 17.7832C25.2109 18.6523 25.1035 19.4287 24.8887 20.1123C24.6738 20.7959 24.3809 21.4014 24.0098 21.9287C23.6484 22.4463 23.2285 22.8906 22.75 23.2617C22.2715 23.6328 21.7686 23.9355 21.2412 24.1699C20.7236 24.4043 20.1963 24.5752 19.6592 24.6826C19.1318 24.79 18.6338 24.8438 18.165 24.8438H9.55176V21.0352H18.165C18.6533 20.9961 19.0928 20.8984 19.4834 20.7422C19.8838 20.5762 20.2256 20.3564 20.5088 20.083C20.792 19.8096 21.0117 19.4824 21.168 19.1016C21.3242 18.7109 21.4023 18.2715 21.4023 17.7832V16.0547C21.3535 15.5762 21.251 15.1367 21.0947 14.7363C20.9385 14.3359 20.7236 13.9941 20.4502 13.7109C20.1865 13.4277 19.8643 13.208 19.4834 13.0518C19.1025 12.8857 18.6631 12.8027 18.165 12.8027H9.58105C9.07324 12.8027 8.6875 12.9346 8.42383 13.1982C8.16016 13.4619 8.02832 13.8428 8.02832 14.3408V30H4.21973V14.3408C4.21973 13.3643 4.39551 12.5342 4.74707 11.8506C5.1084 11.167 5.55273 10.6152 6.08008 10.1953C6.61719 9.77539 7.19824 9.47266 7.82324 9.28711C8.44824 9.0918 9.02441 8.99414 9.55176 8.99414H18.165C19.0244 8.99414 19.7959 9.10645 20.4795 9.33105C21.1631 9.5459 21.7637 9.83887 22.2812 10.21C22.8086 10.5713 23.2529 10.9912 23.6143 11.4697C23.9854 11.9482 24.2881 12.4512 24.5225 12.9785C24.7666 13.4961 24.9424 14.0234 25.0498 14.5605C25.1572 15.0879 25.2109 15.5859 25.2109 16.0547V17.7832ZM49.4688 16.0547C49.4688 16.9238 49.3613 17.7002 49.1465 18.3838C48.9316 19.0674 48.6387 19.6729 48.2676 20.2002C47.9062 20.7178 47.4863 21.1621 47.0078 21.5332C46.5293 21.9043 46.0264 22.2119 45.499 22.4561C44.9814 22.6904 44.4541 22.8613 43.917 22.9688C43.3896 23.0762 42.8916 23.1299 42.4229 23.1299L50.377 30H44.4883L36.5488 23.1299H33.8096V19.3213H42.4229C42.9014 19.2822 43.3359 19.1846 43.7266 19.0283C44.127 18.8623 44.4688 18.6426 44.752 18.3691C45.0449 18.0957 45.2695 17.7686 45.4258 17.3877C45.582 16.9971 45.6602 16.5527 45.6602 16.0547V13.6523C45.6602 13.4375 45.6309 13.2764 45.5723 13.1689C45.5234 13.0518 45.4551 12.9687 45.3672 12.9199C45.2891 12.8613 45.2012 12.8271 45.1035 12.8174C45.0156 12.8076 44.9326 12.8027 44.8545 12.8027H32.2861V30H28.4775V10.9131C28.4775 10.6494 28.5264 10.4004 28.624 10.166C28.7217 9.93164 28.8535 9.72656 29.0195 9.55078C29.1953 9.375 29.4004 9.23828 29.6348 9.14062C29.8691 9.04297 30.123 8.99414 30.3965 8.99414H44.8545C45.7041 8.99414 46.4219 9.15039 47.0078 9.46289C47.5938 9.76563 48.0674 10.1514 48.4287 10.6201C48.7998 11.0791 49.0635 11.5771 49.2197 12.1143C49.3857 12.6514 49.4688 13.1543 49.4688 13.623V16.0547ZM57.1299 30H53.3213V8.99414H57.1299V30ZM86.0312 30H82.1934V17.4902L75.4404 29.3701C75.2744 29.6729 75.04 29.9023 74.7373 30.0586C74.4443 30.2148 74.127 30.293 73.7852 30.293C73.4531 30.293 73.1406 30.2148 72.8477 30.0586C72.5645 29.9023 72.3398 29.6729 72.1738 29.3701L65.3916 17.4902V30H61.583V10.6201C61.583 10.1807 61.71 9.79004 61.9639 9.44824C62.2275 9.10645 62.5693 8.87695 62.9893 8.75977C63.1943 8.71094 63.3994 8.69629 63.6045 8.71582C63.8096 8.72559 64.0049 8.76953 64.1904 8.84766C64.3857 8.91602 64.5615 9.01855 64.7178 9.15527C64.874 9.28223 65.0059 9.43848 65.1133 9.62402L73.7852 24.6973L82.457 9.62402C82.6816 9.25293 82.9893 8.98926 83.3799 8.83301C83.7803 8.67676 84.1953 8.65234 84.625 8.75977C85.0352 8.87695 85.3721 9.10645 85.6357 9.44824C85.8994 9.79004 86.0312 10.1807 86.0312 10.6201V30ZM107.74 21.416H95.7139V17.5781H107.74V21.416ZM109.454 30H95.7139C95.1865 30 94.6104 29.9072 93.9854 29.7217C93.3604 29.5361 92.7793 29.2334 92.2422 28.8135C91.7148 28.3838 91.2705 27.832 90.9092 27.1582C90.5576 26.4746 90.3818 25.6396 90.3818 24.6533V10.9131C90.3818 10.6494 90.4307 10.4004 90.5283 10.166C90.626 9.93164 90.7578 9.72656 90.9238 9.55078C91.0996 9.375 91.3047 9.23828 91.5391 9.14062C91.7734 9.04297 92.0273 8.99414 92.3008 8.99414H109.454V12.8027H94.1904V24.6533C94.1904 25.1514 94.3223 25.5322 94.5859 25.7959C94.8496 26.0596 95.2354 26.1914 95.7432 26.1914H109.454V30Z" fill="white"/>
</svg>
