<svg width="16" height="16" viewBox="0 0 16 16" fill="none" xmlns="http://www.w3.org/2000/svg">
<path fill-rule="evenodd" clip-rule="evenodd" d="M15.3334 9.33335C15.5178 9.33468 15.6936 9.41183 15.8194 9.54668C15.9456 9.67886 16.011 9.85761 16.0001 10.04C15.7997 13.3874 13.0268 15.9997 9.67339 16H6.32672C2.9733 15.9997 0.200387 13.3874 5.61179e-05 10.04C-0.00872703 9.85806 0.0561557 9.68023 0.180056 9.54668C0.304977 9.41018 0.481689 9.33272 0.666723 9.33335H3.07872C3.22571 9.33473 3.35626 9.23967 3.40006 9.09935C3.57416 8.54572 4.08637 8.1683 4.66672 8.16601H8.00339C8.58374 8.1683 9.09595 8.54572 9.27006 9.09935C9.31349 9.23849 9.4423 9.33327 9.58806 9.33335H13.1661C13.3502 9.33335 13.4994 9.18411 13.4994 9.00001V2.00001C13.5001 1.73655 13.3457 1.49736 13.1052 1.38968C12.8648 1.282 12.5834 1.32602 12.3874 1.50201L12.1141 1.77535C12.0251 1.86493 11.9944 1.99706 12.0347 2.11668C12.2672 2.80327 12.0908 3.56229 11.5794 4.07601L11.4461 4.21268C11.1857 4.47294 10.7637 4.47294 10.5034 4.21268L8.74006 2.44868C8.4798 2.18835 8.4798 1.76635 8.74006 1.50601L8.87672 1.36935C9.39654 0.872756 10.1471 0.701707 10.8307 0.924014C10.9495 0.96174 11.0793 0.930112 11.1674 0.842014L11.4761 0.533348C12.0593 -0.00563735 12.9063 -0.148438 13.634 0.169491C14.3618 0.487419 14.8325 1.20583 14.8334 2.00001V9.00001C14.8334 9.18411 14.9826 9.33335 15.1667 9.33335H15.3334ZM7.66672 13.5C7.85082 13.5 8.00006 13.3508 8.00006 13.1667V9.83335C8.00006 9.64925 7.85082 9.50001 7.66672 9.50001H5.00006C4.81596 9.50001 4.66672 9.64925 4.66672 9.83335V13.1667C4.66672 13.3508 4.81596 13.5 5.00006 13.5H7.66672Z" fill="black"/>
<path d="M6.00007 4.05868C6.09632 4.05952 6.19162 4.03951 6.2794 4.00002L7.49007 3.44135C7.70669 3.34191 7.8538 3.13446 7.876 2.89714C7.89819 2.65982 7.79209 2.42869 7.59767 2.2908C7.40324 2.15292 7.15002 2.12924 6.9334 2.22868L5.72073 2.78668C5.43644 2.91786 5.28174 3.2292 5.3489 3.53501C5.41605 3.84082 5.68697 4.05869 6.00007 4.05868Z" fill="black"/>
<path d="M9.41473 7.67267C9.75328 7.81709 10.1448 7.65982 10.2894 7.32134L10.8134 6.09467C10.9485 5.7582 10.79 5.37542 10.4565 5.23306C10.123 5.09071 9.7369 5.241 9.5874 5.57134L9.06673 6.8C8.92324 7.1371 9.07865 7.52682 9.41473 7.67267Z" fill="black"/>
<path d="M6.9907 6.05068C7.24974 6.31223 7.67174 6.31432 7.93336 6.05534L8.88136 5.11801C9.1359 4.85792 9.13484 4.44176 8.87897 4.18298C8.6231 3.9242 8.20698 3.91843 7.94403 4.17001L6.99603 5.10801C6.7343 5.36687 6.73191 5.78887 6.9907 6.05068Z" fill="black"/>
</svg>
