<svg width="122" height="122" viewBox="0 0 122 122" fill="none" xmlns="http://www.w3.org/2000/svg">
<path d="M116 29.2942V112.118C116 114.262 114.262 116 112.118 116H29.2942C27.1501 116 25.4119 114.262 25.4119 112.118V29.2942C25.4119 27.1501 27.1501 25.4119 29.2942 25.4119H112.118C114.262 25.4119 116 27.1501 116 29.2942Z" stroke="black" stroke-width="10.5507" stroke-linecap="round" stroke-linejoin="round"/>
<path d="M96.5882 6H9.88235C7.73819 6 6 7.73819 6 9.88235V96.5882" stroke="black" stroke-width="10.5507" stroke-linecap="round" stroke-linejoin="round"/>
<path d="M63.6445 54.8218C61.0569 53.2695 57.7646 55.1331 57.7646 58.151V83.2607C57.7646 86.2786 61.0569 88.1421 63.6445 86.5898L84.5691 74.035C87.0822 72.5273 87.0822 68.8844 84.5691 67.3767L63.6445 54.8218Z" stroke="black" stroke-width="10.5507" stroke-linecap="round" stroke-linejoin="round"/>
</svg>
